<?xml version="1.0" encoding="utf-8" standalone="yes"?>
<!DOCTYPE svg PUBLIC "-//W3C//DTD SVG 1.1//EN" "http://www.w3.org/Graphics/SVG/1.1/DTD/svg11.dtd">
<svg xmlns="http://www.w3.org/2000/svg" xmlns:xlink="http://www.w3.org/1999/xlink" xmlns:dc="http://purl.org/dc/elements/1.1/" xmlns:cc="http://web.resource.org/cc/" xmlns:rdf="http://www.w3.org/1999/02/22-rdf-syntax-ns#" xmlns:sodipodi="http://sodipodi.sourceforge.net/DTD/sodipodi-0.dtd" xmlns:inkscape="http://www.inkscape.org/namespaces/inkscape" version="1.1" baseProfile="full" width="300px" height="150px" viewBox="0 0 300 150" preserveAspectRatio="xMidYMid meet" id="svg_document" style="zoom: 1;" visibility="visible"><!-- Created with macSVG - https://macsvg.org/ - https://github.com/dsward2/macsvg/ --><title id="svg_document_title" visibility="hidden">Untitled.svg</title><defs id="svg_document_defs" visibility="hidden"></defs><g id="main_group"></g><polygon points="0,75 150,0 300,75 150,150" stroke="#000000" id="polygon1" stroke-width="3px" fill="none" transform=""></polygon><line stroke="#000000" y1="70px" id="line1" stroke-width="1px" x1="10px" y2="80px" x2="10px" transform=""></line><line stroke="#000000" y1="65px" stroke-width="1px" x1="20px" y2="85px" x2="20px" transform="" id="line2"></line><line stroke="#000000" y1="60px" stroke-width="1px" x1="30px" y2="90px" x2="30px" transform="" id="line3"></line><line stroke="#000000" y1="55px" stroke-width="1px" x1="40px" y2="95px" x2="40px" transform="" id="line4"></line><line stroke="#000000" y1="50px" stroke-width="1px" x1="50px" y2="100px" x2="50px" transform="" id="line5"></line><line stroke="#000000" y1="45px" stroke-width="1px" x1="60px" y2="105px" x2="60px" transform="" id="line6"></line><line stroke="#000000" y1="40px" stroke-width="1px" x1="70px" y2="110px" x2="70px" transform="" id="line7"></line><line stroke="#000000" y1="35px" stroke-width="1px" x1="80px" y2="115px" x2="80px" transform="" id="line8"></line><line stroke="#000000" y1="30px" stroke-width="1px" x1="90px" y2="120px" x2="90px" transform="" id="line9"></line><line stroke="#000000" y1="25px" stroke-width="1px" x1="100px" y2="125px" x2="100px" transform="" id="line10"></line><line stroke="#000000" y1="20px" stroke-width="1px" x1="110px" y2="130px" x2="110px" transform="" id="line11"></line><line stroke="#000000" y1="15px" stroke-width="1px" x1="120px" y2="135px" x2="120px" transform="" id="line12"></line><line stroke="#000000" y1="10px" stroke-width="1px" x1="130px" y2="140px" x2="130px" transform="" id="line13"></line><line stroke="#000000" y1="5px" stroke-width="1px" x1="140px" y2="145px" x2="140px" transform="" id="line14"></line><line stroke="#000000" y1="0px" stroke-width="1px" x1="150px" y2="150px" x2="150px" transform="" id="line15"></line><line stroke="#000000" y1="80px" stroke-width="1px" x1="290px" y2="70px" x2="290px" transform="" id="line16"></line><line stroke="#000000" y1="85px" stroke-width="1px" x1="280px" y2="65px" x2="280px" transform="" id="line17"></line><line stroke="#000000" y1="90px" stroke-width="1px" x1="270px" y2="60px" x2="270px" transform="" id="line18"></line><line stroke="#000000" y1="95px" stroke-width="1px" x1="260px" y2="55px" x2="260px" transform="" id="line19"></line><line stroke="#000000" y1="100px" stroke-width="1px" x1="250px" y2="50px" x2="250px" transform="" id="line20"></line><line stroke="#000000" y1="105px" stroke-width="1px" x1="240px" y2="45px" x2="240px" transform="" id="line21"></line><line stroke="#000000" y1="110px" stroke-width="1px" x1="230px" y2="40px" x2="230px" transform="" id="line22"></line><line stroke="#000000" y1="115px" stroke-width="1px" x1="220px" y2="35px" x2="220px" transform="" id="line23"></line><line stroke="#000000" y1="120px" stroke-width="1px" x1="210px" y2="30px" x2="210px" transform="" id="line24"></line><line stroke="#000000" y1="125px" stroke-width="1px" x1="200px" y2="25px" x2="200px" transform="" id="line25"></line><line stroke="#000000" y1="130px" stroke-width="1px" x1="190px" y2="20px" x2="190px" transform="" id="line26"></line><line stroke="#000000" y1="135px" stroke-width="1px" x1="180px" y2="15px" x2="180px" transform="" id="line27"></line><line stroke="#000000" y1="140px" stroke-width="1px" x1="170px" y2="10px" x2="170px" transform="" id="line28"></line><line stroke="#000000" y1="145px" stroke-width="1px" x1="160px" y2="5px" x2="160px" transform="" id="line29"></line></svg>
